<?xml version="1.0" encoding="UTF-8" standalone="no"?>
<!DOCTYPE svg PUBLIC "-//W3C//DTD SVG 1.1//EN" "http://www.w3.org/Graphics/SVG/1.1/DTD/svg11.dtd">
<svg width="100%" height="100%" viewBox="0 0 24 24" version="1.1" xmlns="http://www.w3.org/2000/svg" xmlns:xlink="http://www.w3.org/1999/xlink" xml:space="preserve" xmlns:serif="http://www.serif.com/" style="fill-rule:evenodd;clip-rule:evenodd;stroke-linejoin:round;stroke-miterlimit:1.41421;">
    <g transform="matrix(0.0234375,0,0,0.0234375,57,-12)">
        <g id="Artboard1" transform="matrix(41.7982,0,0,41.7982,-59.6589,10.4218)">
            <rect x="-56.757" y="12" width="24.499" height="24.499" style="fill:none;"/>
            <clipPath id="_clip1">
                <rect x="-56.757" y="12" width="24.499" height="24.499"/>
            </clipPath>
            <g clip-path="url(#_clip1)">
                <g transform="matrix(0.0490955,0,0,0.0490955,-56.757,12)">
                    <circle cx="249.5" cy="249.8" r="57.8"/>
                    <path d="M249.5,220C266,220 279.3,233.4 279.3,249.8C279.3,266.3 265.9,279.6 249.5,279.6C233,279.6 219.7,266.2 219.7,249.8C219.7,233.4 233.1,220 249.5,220M249.5,206C225.3,206 205.7,225.6 205.7,249.8C205.7,274 225.3,293.6 249.5,293.6C273.7,293.6 293.3,274 293.3,249.8C293.4,225.6 273.7,206 249.5,206Z" style="fill-rule:nonzero;"/>
                    <path d="M249.5,154C292.4,154 328.7,182.2 340.9,221L497.7,221C483.4,96.6 377.7,0 249.5,0C121.3,0 15.7,96.6 1.3,221L158.1,221C170.3,182.2 206.6,154 249.5,154Z" style="fill-rule:nonzero;"/>
                    <path d="M479.3,280.7C472.4,332.9 448,380.9 409.4,417.7C366.1,459 309.3,481.7 249.4,481.7C189.5,481.7 132.7,459 89.4,417.7C50.9,381 26.5,332.9 19.5,280.7L139.7,280.7C145.6,301.7 157.5,320.7 174,335.3C194.8,353.6 221.5,363.7 249.3,363.7C277.1,363.7 303.8,353.6 324.6,335.3C341.2,320.7 353,301.7 358.9,280.7L479.3,280.7M499,262.7L344.5,262.7C338.2,309.6 298.1,345.7 249.5,345.7C200.9,345.7 160.8,309.6 154.5,262.7L0,262.7C6.7,394.7 115.8,499.7 249.5,499.7C383.2,499.7 492.4,394.7 499,262.7Z" style="fill-rule:nonzero;"/>
                </g>
            </g>
        </g>
    </g>
</svg>
